# xmcd CD database file
#
# Track frame offsets:
#	150
#	14967
#	28907
#	39882
#	51655
#	77595
#	91257
#	100117
#	112005
#	128275
#	145215
#	157712
#	172182
#	188320
#	202900
#	223235
#	243352
#	256652
#	268635
#	281442
#	298652
#	312725
#	326382
#
# Disc length: 4548 seconds
#
# Revision: 0
# Processed by: cddbd v1.5.1PL2 Copyright (c) Steve Scherf et al.
# Submitted via: CDex 1.51
#
DISCID=4511c217
DTITLE=Ella Fitzgerald - The Magic of Ella Fitzgerald
DYEAR=1900
DGENRE=Blues
TTITLE0=deep in the heart of the south
TTITLE1=stairway to the stars
TTITLE2=that old black magic
TTITLE3=cryin' mood
TTITLE4=cheek to cheek
TTITLE5=starlit hour
TTITLE6=lover, come back to me
TTITLE7=sing song swing
TTITLE8=it's a blue world
TTITLE9=can't we be friends
TTITLE10=big boy blue
TTITLE11=dedicated to you
TTITLE12=moonlight in vermont
TTITLE13=rock it for me
TTITLE14=i want to be happy
TTITLE15=a foggy day
TTITLE16=sugar blues
TTITLE17=all or nothing at all
TTITLE18=love is the thing, so they say
TTITLE19=a fine romance
TTITLE20=you showed me the way
TTITLE21=basin street blues
TTITLE22=if you ever should leave
EXTD=
EXTT0=
EXTT1=
EXTT2=
EXTT3=
EXTT4=
EXTT5=
EXTT6=
EXTT7=
EXTT8=
EXTT9=
EXTT10=
EXTT11=
EXTT12=
EXTT13=
EXTT14=
EXTT15=
EXTT16=
EXTT17=
EXTT18=
EXTT19=
EXTT20=
EXTT21=
EXTT22=
PLAYORDER=
